<svg width="117" height="133" viewBox="0 0 117 133" fill="none" xmlns="http://www.w3.org/2000/svg">
<path d="M12.3561 33C-1.64385 65.4 1.52282 102.5 4.85615 117C24.2908 127.565 55.7115 142.355 111.856 117C115.189 102.5 118.356 65.4 104.356 33L101.856 20L99.3561 30L92.3561 15.5L83.8561 22C57.6377 16.5667 42.9318 19.7361 33.8561 22L15.8561 2L12.3561 33Z" fill="#8E8E8E"/>
<path d="M4.85615 117L3.39428 117.336L3.54575 117.995L4.13975 118.318L4.85615 117ZM12.3561 33L13.7331 33.595L13.8216 33.3901L13.8467 33.1683L12.3561 33ZM111.856 117L112.474 118.367L113.151 118.061L113.318 117.336L111.856 117ZM104.356 33L102.883 33.2833C102.904 33.3904 102.936 33.4949 102.979 33.595L104.356 33ZM15.8561 2L16.9711 0.996553C16.5761 0.557718 15.9605 0.391375 15.3983 0.571588C14.8361 0.751802 14.4319 1.24505 14.3656 1.83171L15.8561 2ZM33.8561 22L32.7412 23.0034L33.3444 23.6736L34.2192 23.4554L33.8561 22ZM99.3561 30L98.0053 30.6521C98.2799 31.2208 98.8812 31.5567 99.5095 31.4921C100.138 31.4276 100.658 30.9765 100.811 30.3638L99.3561 30ZM92.3561 15.5L93.707 14.8479C93.511 14.4418 93.1427 14.1455 92.7041 14.0409C92.2655 13.9363 91.8031 14.0346 91.445 14.3085L92.3561 15.5ZM83.8561 22L83.5518 23.4688C83.978 23.5571 84.4216 23.4559 84.7673 23.1915L83.8561 22ZM101.856 20L103.329 19.7167C103.196 19.0257 102.601 18.5199 101.897 18.5006C101.194 18.4812 100.572 18.9535 100.401 19.6362L101.856 20ZM93.1708 14.1584C92.4299 13.7879 91.5288 14.0882 91.1584 14.8292C90.7879 15.5701 91.0882 16.4712 91.8292 16.8416L93.1708 14.1584ZM100.829 21.3416C101.57 21.7121 102.471 21.4118 102.842 20.6708C103.212 19.9299 102.912 19.0288 102.171 18.6584L100.829 21.3416ZM6.31802 116.664C3.02809 102.353 -0.0979545 65.604 13.7331 33.595L10.9792 32.405C-3.18975 65.196 0.017544 102.647 3.39428 117.336L6.31802 116.664ZM113.318 117.336C116.695 102.647 119.902 65.196 105.733 32.405L102.979 33.595C116.81 65.604 113.684 102.353 110.394 116.664L113.318 117.336ZM13.8467 33.1683L17.3467 2.16829L14.3656 1.83171L10.8656 32.8317L13.8467 33.1683ZM14.7412 3.00345L32.7412 23.0034L34.9711 20.9966L16.9711 0.996553L14.7412 3.00345ZM100.707 29.3479L93.707 14.8479L91.0053 16.1521L98.0053 30.6521L100.707 29.3479ZM91.445 14.3085L82.945 20.8085L84.7673 23.1915L93.2673 16.6915L91.445 14.3085ZM105.829 32.7167L103.329 19.7167L100.383 20.2833L102.883 33.2833L105.829 32.7167ZM100.401 19.6362L97.9009 29.6362L100.811 30.3638L103.311 20.3638L100.401 19.6362ZM34.2192 23.4554C43.1373 21.2308 57.6083 18.0925 83.5518 23.4688L84.1605 20.5312C57.667 15.0409 42.7263 18.2414 33.4931 20.5446L34.2192 23.4554ZM91.8292 16.8416L100.829 21.3416L102.171 18.6584L93.1708 14.1584L91.8292 16.8416ZM4.13975 118.318C13.9084 123.628 26.831 130.081 44.4305 131.962C62.038 133.843 84.1969 131.137 112.474 118.367L111.239 115.633C83.3707 128.218 61.747 130.795 44.7493 128.979C27.7436 127.161 15.2386 120.937 5.57254 115.682L4.13975 118.318Z" fill="black"/>
<path d="M27 47L30.8 49.1538L34 51" stroke="black" stroke-width="3" stroke-linecap="round"/>
<path d="M23 69L25.7143 70.6154L28 72" stroke="black" stroke-width="3" stroke-linecap="round"/>
<path d="M21 73L23.7143 74.6154L26 76" stroke="black" stroke-width="3" stroke-linecap="round"/>
<path d="M18 77L20.7143 78.6154L23 80" stroke="black" stroke-width="3" stroke-linecap="round"/>
<path d="M15 81L17.7143 82.6154L20 84" stroke="black" stroke-width="3" stroke-linecap="round"/>
<path d="M16 85L21.9714 76.3846L27 69" stroke="black" stroke-width="3" stroke-linecap="round"/>
<path d="M40 54L57 62" stroke="black" stroke-width="3" stroke-linecap="round"/>
<path d="M73 62L99 53" stroke="black" stroke-width="3" stroke-linecap="round"/>
<circle cx="79.5" cy="69.5" r="1.5" fill="black"/>
<circle cx="49.5" cy="68.5" r="1.5" fill="black"/>
<path d="M69 82C69 83.6569 67.6569 85 66 85C64.3431 85 63 83.6569 63 82C63 80.3431 64.3431 79 66 79C67.6569 79 69 80.3431 69 82Z" fill="black"/>
<path d="M65.9085 82C66.4767 105.843 64 109 45 104.5" stroke="black" stroke-width="3" stroke-linecap="round"/>
<path d="M66.0915 83C65.5233 106.843 67.2278 108.469 82 106.301" stroke="black" stroke-width="3" stroke-linecap="round"/>
<path d="M50 106L41 114" stroke="black" stroke-width="3" stroke-linecap="round"/>
</svg>
