<svg width="92" height="77" viewBox="0 0 92 77" fill="none" xmlns="http://www.w3.org/2000/svg">
<path d="M20.3917 60.4661C-26.2858 20.4877 17.9668 -18.1877 46 9.2087C74.0332 -18.1877 118.286 20.4875 71.6082 60.4661H20.3917Z" fill="#FF8997"/>
<path d="M12.0489 25.5695C12.0489 16.4328 14.6177 7.90807 19.0563 0.697266C-0.491954 5.34799 -12.1563 32.5895 20.3917 60.466H27.3376C17.9525 51.878 12.0489 39.4262 12.0489 25.5695Z" fill="#FF6F7F"/>
<path d="M71.6082 23.0848V60.4661C65.3274 65.8492 57.3991 71.2525 47.5623 76.5227C46.5868 77.0447 45.4131 77.0447 44.4376 76.5227C34.6008 71.2525 26.6725 65.8492 20.3917 60.4661V23.0848C20.3917 21.317 21.1081 19.7158 22.2669 18.5589C23.4238 17.4001 25.025 16.6837 26.7928 16.6837C30.3285 16.6837 33.1958 19.5492 33.1958 23.0848C33.1958 21.317 33.9122 19.7158 35.071 18.5589C36.2298 17.4001 37.8292 16.6837 39.597 16.6837C43.1344 16.6837 46 19.5492 46 23.0848C46 21.317 46.7163 19.7158 47.8751 18.5589C49.0339 17.4001 50.6351 16.6837 52.4029 16.6837C55.9386 16.6837 58.8041 19.5492 58.8041 23.0848C58.8041 21.317 59.5205 19.7158 60.6792 18.5589C61.838 17.4001 63.4393 16.6837 65.2071 16.6837C68.7427 16.6837 71.6082 19.5492 71.6082 23.0848Z" fill="#C7C5CB"/>
<path d="M56.8891 46.9673C51.7173 46.9673 51.9752 41.8947 46 41.8947C40.0248 41.8947 40.2826 46.9673 35.1108 46.9673C31.0834 46.9673 26.5694 53.0269 30.245 59.1312C33.9206 65.2354 39.8528 61.0226 46 61.0226C52.1471 61.0226 58.0794 65.2354 61.7549 59.1312C65.4307 53.0269 60.9166 46.9673 56.8891 46.9673Z" fill="#FFDCEF"/>
<path d="M39.808 36.999C41.618 36.999 43.0852 35.138 43.0852 32.8423C43.0852 30.5466 41.618 28.6856 39.808 28.6856C37.9981 28.6856 36.5308 30.5466 36.5308 32.8423C36.5308 35.138 37.9981 36.999 39.808 36.999Z" fill="#FFDCEF"/>
<path d="M30.6121 42.4205C32.3696 41.9843 33.3458 39.8237 32.7925 37.5946C32.2393 35.3655 30.3661 33.9121 28.6086 34.3483C26.8511 34.7845 25.8749 36.9451 26.4282 39.1742C26.9814 41.4033 28.8547 42.8567 30.6121 42.4205Z" fill="#FFDCEF"/>
<path d="M52.1919 36.999C54.0019 36.999 55.4691 35.138 55.4691 32.8423C55.4691 30.5466 54.0019 28.6856 52.1919 28.6856C50.382 28.6856 48.9147 30.5466 48.9147 32.8423C48.9147 35.138 50.382 36.999 52.1919 36.999Z" fill="#FFDCEF"/>
<path d="M65.6477 39.1687C66.2009 36.9396 65.2247 34.7789 63.4673 34.3427C61.7098 33.9065 59.8366 35.36 59.2833 37.5891C58.7301 39.8181 59.7063 41.9788 61.4638 42.415C63.2212 42.8512 65.0944 41.3978 65.6477 39.1687Z" fill="#FFDCEF"/>
<path d="M20.3917 52.4914V60.4661C26.6725 65.8491 34.6008 71.2525 44.4376 76.5226C45.4131 77.0447 46.5867 77.0447 47.5623 76.5226C50.1329 75.1454 52.5719 73.7589 54.8867 72.3664C40.6204 71.3531 28.1447 63.7333 20.3917 52.4914Z" fill="#B2B0BC"/>
</svg>
